<?xml version="1.0" encoding="UTF-8" standalone="no"?>
<svg
   id="__tmb-35354"
   viewBox="0 0 754.4292 189.03192"
   style="overflow:visible;opacity:1"
   version="1.1"
   width="754.4292"
   height="189.03192"
   xmlns="http://www.w3.org/2000/svg"
   xmlns:svg="http://www.w3.org/2000/svg">
  <defs
     id="defs11" />
  <svg
     viewBox="-2.2143927 0 515.02612 512"
     style="overflow:visible"
     data-bbox="26.693 97.21 458.613 317.58"
     version="1.1"
     id="svg11"
     width="100%"
     height="100%"
     transform="matrix(0.99412434,0,0,0.99412434,2.2013815,1.5041686)">
    <rect
       x="-121.91593"
       y="161.48404"
       width="146.48367%"
       height="36.920296%"
       fill="#e08f7e"
       data-fl-background=""
       id="rect3"
       style="stroke-width:0.735407" />
    <g
       id="g2"
       transform="translate(-118.54669)">
      <g
         transform="matrix(0.66057879,0,0,0.66057879,-48.812351,90.855622)"
         id="g10">
        <path
           fill="#ffffff"
           d="m 323.918,360.033 c -0.213,0.792 -0.604,1.751 -0.926,2.731 -31.548,-0.184 -73.34,-0.377 -110.132,-0.53 -0.278,-1.401 -0.519,-2.809 -0.741,-4.221 -1.26,-8.446 -2.42,-16.906 -3.501,-25.376 3.477,-1.371 6.971,-2.701 10.418,-4.149 -0.12,0.05 -0.165,0.068 -0.325,0.135 0.861,-0.357 1.682,-0.684 2.554,-1.03 3.066,-1.543 1.056,-6.156 -2.153,-5.009 -3.746,1.509 -7.383,3.006 -11.202,4.461 -0.581,-4.727 -1.126,-9.459 -1.651,-14.193 0.876,0.299 1.75,0.603 2.619,0.921 2.76,1.011 5.552,1.958 8.262,3.097 2.588,1.759 5.702,-1.637 3.642,-4.04 -1.433,-1.363 -3.585,-1.68 -5.352,-2.483 -3.257,-1.215 -6.532,-2.37 -9.826,-3.474 -1.032,-9.765 -1.948,-19.542 -2.739,-29.329 -0.519,-7.307 -1.222,-14.779 -0.866,-22.142 0.479,-9.33 2.477,-6.491 7.971,-2.159 3.97,3.456 7.706,7.168 11.491,10.822 2.781,2.691 6.006,6.159 10.263,5.373 6.361,-1.078 12.649,-2.59 18.976,-3.857 5.684,-1.253 11.078,-2.481 16.848,-3.69 3.761,-0.959 7.888,-1.351 11.197,-3.51 2.281,-1.594 1.548,-4.684 1.973,-7.069 0.528,-4.687 1.17,-9.367 1.863,-14.032 0.153,-0.319 0.266,-0.691 0.325,-1.124 0.239,-1.373 0.318,-2.813 0.802,-4.125 5.033,4.237 7.396,10.867 10.356,16.583 4.212,9.285 10.782,21.546 15.55,30.549 0.019,0.037 0.043,0.067 0.063,0.102 0.016,0.129 0.031,0.258 0.047,0.387 -1.902,1.185 -3.796,2.382 -5.697,3.568 -3.077,1.91 -6.14,3.853 -9.277,5.664 -2.129,1.021 -4.323,2.266 -2.878,4.942 0.828,1.265 2.498,1.547 3.74,0.807 2.603,-1.41 5.134,-2.95 7.65,-4.512 2.367,-1.464 4.723,-2.947 7.084,-4.42 0.252,2.927 0.442,5.861 0.594,8.795 -4.277,1.064 -8.55,2.143 -12.85,3.112 -1.452,0.413 -3.08,0.529 -4.408,1.271 -1.227,0.81 -1.619,2.557 -0.782,3.784 0.874,1.368 2.61,1.448 3.973,0.847 1.318,-0.344 2.935,-0.686 4.544,-1.061 3.264,-0.773 6.522,-1.574 9.778,-2.385 0.102,2.35 0.194,4.7 0.204,7.053 -0.077,0.931 -0.028,1.944 0.564,2.693 -5.401,6.334 -11.2,13.477 -12.825,20.904 0.089,3.39 5.03,3.596 5.446,0.282 0.907,-2.83 2.429,-5.428 4.023,-7.921 7.952,-11.169 17.265,-21.418 27.152,-30.9 1.76,-1.557 4.347,-3.726 7.142,-5.337 -1.202,1.551 -2.252,3.186 -1.189,4.892 3.263,3.755 5.781,-2.059 7.504,-4.353 0.597,-0.866 1.202,-1.727 1.812,-2.583 0.774,0.168 1.513,0.483 2.202,0.977 -1.379,1.788 -2.75,3.583 -4.095,5.396 -1.613,1.792 -3.095,4.334 -0.269,5.888 1.258,0.59 2.761,0.066 3.492,-1.105 1.231,-1.683 2.493,-3.343 3.766,-4.995 0.508,2.711 0.077,5.659 -0.764,8.234 -3.604,8.804 -9.311,16.564 -14.118,24.729 -5.509,9.2 -10.567,18.685 -14.547,28.654 -0.996,2.459 -1.926,4.947 -2.777,7.461 z"
           id="path3" />
        <g
           id="g7">
          <path
             fill="#323e51"
             d="m 269.553,297.911 c 3.233,0.864 3.594,-3.066 4.711,-5.114 1.637,-3.085 3.91,-5.811 6.511,-8.129 3.726,-3.157 8.081,-5.647 12.843,-6.72 1.894,-1.068 1.864,-4.018 -0.274,-4.901 -3.913,-0.909 -9.988,3.132 -13.247,5.242 -3.142,2.18 -5.879,4.91 -8.152,7.981 -1.877,2.492 -3.311,5.289 -4.261,8.26 -0.479,1.411 0.489,2.983 1.869,3.381 z"
             id="path4" />
          <path
             fill="#323e51"
             d="m 240.074,301.824 c 1.975,3.702 6.957,0.424 4.638,-2.98 -2.62,-5.813 -7.427,-10.5 -13.459,-12.658 -5.237,-1.725 -11.167,-2.741 -16.55,-1.16 -2.898,1.199 -1.622,5.675 1.461,5.219 2.868,-0.831 5.944,-0.515 8.861,-0.084 6.806,1.015 12.445,5.258 15.049,11.663 z m -22.583,-12.156 10e-4,-0.002 c -0.095,0.067 -0.192,0.136 -0.288,0.203 -0.057,0.03 -0.114,0.059 -0.171,0.089 0.288,-0.153 0.549,-0.357 0.768,-0.598 -0.082,0.119 -0.207,0.203 -0.31,0.308 z"
             id="path5" />
          <path
             fill="#323e51"
             d="m 284.534,310.296 c -2.73,-0.814 -3.393,1.62 -4.403,3.501 -0.645,1.055 -1.386,2.055 -2.252,2.94 -3.861,3.612 -9.377,4.448 -13.516,0.795 -0.497,-0.345 -0.917,-0.802 -1.326,-1.271 0.549,-0.474 1.053,-0.984 1.489,-1.457 2.072,-2.295 4.157,-4.77 5.397,-7.622 0.6,-1.582 -0.255,-3.506 -1.898,-4.024 -1.295,-0.399 -2.66,-0.165 -3.966,0.056 -2.994,0.25 -5.984,0.625 -8.961,1.016 -1.866,0.295 -3.727,0.689 -5.541,1.212 -2.527,0.841 -2.628,4.072 -0.552,5.493 2.552,1.805 5.022,3.701 7.4,5.727 -0.244,0.507 -0.48,1.019 -0.783,1.494 -1.432,2.295 -3.434,4.343 -5.954,5.41 -5.738,2.236 -12.407,0.844 -14.116,-5.705 -0.784,-1.241 -2.573,-1.611 -3.784,-0.78 -2.054,1.317 -1.091,4.029 -0.073,5.725 2.414,4.584 7.451,7.272 12.577,7.181 6.479,0.274 12.632,-3.306 15.916,-8.841 5.317,5.022 12.741,5.571 18.841,1.582 2.807,-1.517 10.769,-10.262 5.505,-12.432 z m -48.589,9.627 c 0,-0.003 0,-0.004 0,-0.008 0.035,-0.255 0.049,-0.505 0.034,-0.749 0.04,0.253 0,0.506 -0.034,0.757 z"
             id="path6" />
          <path
             fill="#323e51"
             d="m 388.281,262.611 c -0.058,-0.15 -0.132,-0.298 -0.222,-0.444 -3.482,-3.439 -7.686,-6.18 -11.32,-9.49 -7.594,-6.346 -14.956,-12.958 -22.25,-19.645 0.368,-0.517 -2.213,-43.198 -2.204,-53.398 -0.13,-4.841 0.489,-9.865 -0.737,-14.593 -0.741,-2.543 -3.382,-3.3 -5.746,-3.481 -4.012,-0.404 -8.063,-0.19 -12.084,-0.018 -7.404,0.587 -14.988,0.137 -22.257,1.804 -7.3,1.827 -6.304,6.632 -6.482,12.734 -0.067,4.283 -0.179,8.567 -0.195,12.85 -5.798,-5.092 -11.569,-10.213 -17.273,-15.412 -13.904,-12.383 -45.845,-42.386 -50.031,-42.105 -4.963,0.334 -47.461,52.495 -59.931,67.232 -15.053,18.069 -28.421,37.462 -43.254,55.712 -6.146,7.739 -12.458,15.345 -18.301,23.319 -1.67,2.39 -3.854,4.588 -4.79,7.396 -1.197,5.462 6.735,9.326 10.849,12.425 -0.154,3.047 0.51,6.226 0.528,9.233 1.303,18.613 1.319,37.29 2.378,55.909 0.06,0.782 0.361,1.371 0.791,1.779 -0.078,1.507 0.949,3.116 2.853,2.979 11.37,-0.043 218.881,1.585 242.256,1.101 1.925,0.319 3.054,-1.286 3.025,-2.834 0.401,-0.84 0.492,-1.91 0.377,-2.872 0.054,-4.419 -0.138,-8.835 -0.301,-13.251 -0.636,-14.171 -1.1,-28.346 -0.936,-42.533 0.006,-8.108 0.216,-16.216 0.519,-24.318 -0.013,-1.662 0.157,-3.377 0.254,-5.088 1.894,-0.874 3.856,-2.819 5.282,-3.625 3.233,-2.493 6.484,-5.053 9.281,-8.03 -0.068,0.081 -0.136,0.161 -0.204,0.242 -0.086,0.078 -0.171,0.157 -0.257,0.235 1.347,-1.049 1.23,-2.723 0.382,-3.813 z m -77.798,-89.067 c 0.324,-3.305 -0.853,-4.232 3.013,-5.092 6.539,-1.18 13.257,-0.941 19.871,-1.422 4.36,-0.146 8.795,-0.568 13.121,0.169 0.365,4.369 0.428,8.755 0.393,13.146 -0.69,0.046 -1.384,0.137 -2.032,0.134 -5.731,0.313 -11.453,0.809 -17.181,1.198 -5.7,0.383 -11.284,0.873 -16.975,1.575 -0.129,0.01 -0.262,0.019 -0.397,0.03 0.048,-3.25 0.118,-6.501 0.187,-9.738 z m -0.235,15.24 c 2.028,-0.271 36.27,-2.922 36.552,-2.938 -0.091,4.658 0.905,32.776 2.172,42.108 -0.195,-0.181 -0.391,-0.361 -0.587,-0.541 -12.613,-11.554 -25.571,-22.719 -38.451,-33.972 0.176,-0.342 0.309,-3.478 0.314,-4.657 z m 13.67,171.249 c -0.213,0.792 -0.604,1.751 -0.926,2.731 -31.548,-0.184 -73.34,-0.377 -110.132,-0.53 -0.278,-1.401 -0.519,-2.809 -0.741,-4.221 -1.26,-8.446 -2.42,-16.906 -3.501,-25.376 3.477,-1.371 6.971,-2.701 10.418,-4.149 -0.12,0.05 -0.165,0.068 -0.325,0.135 0.861,-0.357 1.682,-0.684 2.554,-1.03 3.066,-1.543 1.056,-6.156 -2.153,-5.009 -3.746,1.509 -7.383,3.006 -11.202,4.461 -0.581,-4.727 -1.126,-9.459 -1.651,-14.193 0.876,0.299 1.75,0.603 2.619,0.921 2.76,1.011 5.552,1.958 8.262,3.097 2.588,1.759 5.702,-1.637 3.642,-4.04 -1.433,-1.363 -3.585,-1.68 -5.352,-2.483 -3.257,-1.215 -6.532,-2.37 -9.826,-3.474 -1.032,-9.765 -1.948,-19.542 -2.739,-29.329 -0.519,-7.307 -1.222,-14.779 -0.866,-22.142 0.479,-9.33 2.477,-6.491 7.971,-2.159 3.97,3.456 7.706,7.168 11.491,10.822 2.781,2.691 6.006,6.159 10.263,5.373 6.361,-1.078 12.649,-2.59 18.976,-3.857 5.684,-1.253 11.078,-2.481 16.848,-3.69 3.761,-0.959 7.888,-1.351 11.197,-3.51 2.281,-1.594 1.548,-4.684 1.973,-7.069 0.528,-4.687 1.17,-9.367 1.863,-14.032 0.153,-0.319 0.266,-0.691 0.325,-1.124 0.239,-1.373 0.318,-2.813 0.802,-4.125 5.033,4.237 7.396,10.867 10.356,16.583 4.212,9.285 10.782,21.546 15.55,30.549 0.019,0.037 0.043,0.067 0.063,0.102 0.016,0.129 0.031,0.258 0.047,0.387 -1.902,1.185 -3.796,2.382 -5.697,3.568 -3.077,1.91 -6.14,3.853 -9.277,5.664 -2.129,1.021 -4.323,2.266 -2.878,4.942 0.828,1.265 2.498,1.547 3.74,0.807 2.603,-1.41 5.134,-2.95 7.65,-4.512 2.367,-1.464 4.723,-2.947 7.084,-4.42 0.252,2.927 0.442,5.861 0.594,8.795 -4.277,1.064 -8.55,2.143 -12.85,3.112 -1.452,0.413 -3.08,0.529 -4.408,1.271 -1.227,0.81 -1.619,2.557 -0.782,3.784 0.874,1.368 2.61,1.448 3.973,0.847 1.318,-0.344 2.935,-0.686 4.544,-1.061 3.264,-0.773 6.522,-1.574 9.778,-2.385 0.102,2.35 0.194,4.7 0.204,7.053 -0.077,0.931 -0.028,1.944 0.564,2.693 -5.401,6.334 -11.2,13.477 -12.825,20.904 0.089,3.39 5.03,3.596 5.446,0.282 0.907,-2.83 2.429,-5.428 4.023,-7.921 7.952,-11.169 17.265,-21.418 27.152,-30.9 1.76,-1.557 4.347,-3.726 7.142,-5.337 -1.202,1.551 -2.252,3.186 -1.189,4.892 3.263,3.755 5.781,-2.059 7.504,-4.353 0.597,-0.866 1.202,-1.727 1.812,-2.583 0.774,0.168 1.513,0.483 2.202,0.977 -1.379,1.788 -2.75,3.583 -4.095,5.396 -1.613,1.792 -3.095,4.334 -0.269,5.888 1.258,0.59 2.761,0.066 3.492,-1.105 1.231,-1.683 2.493,-3.343 3.766,-4.995 0.508,2.711 0.077,5.659 -0.764,8.234 -3.604,8.804 -9.311,16.564 -14.118,24.729 -5.509,9.2 -10.567,18.685 -14.547,28.654 -0.996,2.459 -1.926,4.947 -2.777,7.461 z m 44.244,-18.656 c 0.248,5.319 0.438,10.639 0.613,15.96 0.031,1.925 0.037,3.855 0.025,5.782 -6.284,-0.094 -20.922,-0.205 -40.052,-0.32 0.146,-0.443 0.294,-0.885 0.446,-1.324 2.702,-7.809 6,-15.312 9.881,-22.626 5.065,-9.791 11.295,-18.897 16.78,-28.442 3.169,-5.347 6.188,-11.17 5.978,-17.558 -0.13,-2.721 -0.734,-5.089 -1.708,-7.06 0.051,-0.066 0.102,-0.131 0.152,-0.197 2.09,-2.521 -1.241,-5.643 -3.571,-4.068 -0.72,-0.557 -1.502,-1.016 -2.336,-1.377 0.263,-0.491 0.427,-1.015 0.378,-1.6 -0.108,-2.328 -3.398,-3.398 -4.815,-1.513 -0.569,0.77 -1.11,1.504 -1.643,2.234 -2.032,0.199 -4.193,0.839 -6.416,1.968 -5.08,2.354 -9.226,6.29 -13.211,10.141 -4.105,4.089 -8.026,8.364 -11.849,12.717 -0.032,-1.068 -0.076,-2.136 -0.114,-3.203 -0.032,-0.726 -0.065,-1.453 -0.098,-2.179 1.511,-0.379 3.022,-0.758 4.533,-1.136 3.524,-0.767 2.434,-6.022 -1.065,-5.361 -1.246,0.317 -2.493,0.632 -3.741,0.945 -0.193,-3.561 -0.43,-7.119 -0.777,-10.667 1.725,-1.047 3.459,-2.079 5.211,-3.083 0.43,-0.246 0.928,-0.725 1.176,-1.429 0.872,-2.197 -1.701,-4.495 -3.775,-3.366 -1.113,0.622 -2.215,1.262 -3.312,1.912 -0.018,-0.129 -0.032,-0.258 -0.05,-0.386 -1.758,-11.522 -4.39,-23.154 -10.177,-33.381 -0.376,-0.684 -0.761,-1.364 -1.155,-2.042 v 0 c -1.187,-2.723 -3.049,-5.501 -5.447,-8.218 -4.856,-6.387 -10.8,-11.894 -18.161,-15.306 -18.331,-8.919 -40.41,-12.221 -59.639,-4.179 -26.291,10.205 -38.194,39.564 -42.005,65.659 -4.567,27.523 -4.67,55.57 -4.983,83.404 -21.19,-0.079 -37.156,-0.129 -42.836,-0.135 -0.824,-13.912 -0.908,-27.866 -1.601,-41.787 -0.249,-5.766 -0.593,-11.526 -0.993,-17.282 0.024,-2.543 -0.965,-5.452 0.409,-7.76 4.609,-7.086 10.216,-13.46 15.371,-20.147 16.493,-20.549 31.319,-42.388 48.46,-62.423 12.962,-16.103 26.959,-31.331 40.222,-47.183 0.864,-1.341 3.737,-4.296 5.461,-6.853 4.438,3.302 8.646,6.919 12.86,10.497 12.84,10.919 25.147,22.442 38.153,33.171 18.597,15.947 37.289,31.781 55.7,47.944 5.686,4.97 11.332,9.991 16.785,15.219 2.115,2.394 5.93,4.863 7.037,8.132 -0.493,22.616 -1.274,45.281 -0.101,67.906 z m 9.455,-73.183 c -1.388,1.119 -2.824,2.176 -4.298,3.177 -0.126,-0.421 -0.273,-0.838 -0.457,-1.247 -5.983,-8.356 -14.598,-14.615 -22.027,-21.661 -15.392,-13.531 -30.947,-26.875 -46.565,-40.144 -19.098,-16.05 -37.569,-32.815 -56.616,-48.917 -2.711,-2.238 -9.198,-8.727 -10.528,-8.484 -1.202,0.39 -3.214,3.485 -3.809,4.283 -0.919,1.233 -1.86,2.448 -2.811,3.655 -9.316,11.561 -19.381,22.495 -29.002,33.801 -21.307,24.414 -40.309,50.627 -60.081,76.258 -5.867,7.709 -12.464,14.951 -17.672,23.134 -2.538,-1.752 -5.146,-3.438 -7.179,-5.772 11.298,-16.146 24.414,-30.958 36.248,-46.717 13.957,-18.758 28.185,-37.295 43.756,-54.758 7.626,-8.854 15.145,-17.806 22.442,-26.934 4.361,-5.338 16.928,-19.968 19.085,-19.985 2.157,-0.017 32.202,27.767 46.851,40.661 17.146,15.67 34.969,30.575 52.25,46.098 14.78,13.459 29.388,27.148 45.02,39.615 -1.496,1.357 -2.984,2.747 -4.607,3.937 z"
             id="path7" />
        </g>
        <g
           id="g9">
          <path
             fill="#ffffff"
             d="m 310.483,173.544 c 0.324,-3.305 -0.853,-4.232 3.013,-5.092 6.539,-1.18 13.257,-0.941 19.871,-1.422 4.36,-0.146 8.795,-0.568 13.121,0.169 0.365,4.369 0.428,8.755 0.393,13.146 -0.69,0.046 -1.384,0.137 -2.032,0.134 -5.731,0.313 -11.453,0.809 -17.181,1.198 -5.7,0.383 -11.284,0.873 -16.975,1.575 -0.129,0.01 -0.262,0.019 -0.397,0.03 0.048,-3.25 0.118,-6.501 0.187,-9.738 z"
             id="path8" />
          <path
             fill="#ffffff"
             d="m 377.617,268.194 c -1.388,1.119 -2.824,2.176 -4.298,3.177 -0.126,-0.421 -0.273,-0.838 -0.457,-1.247 -5.983,-8.356 -14.598,-14.615 -22.027,-21.661 -15.392,-13.531 -30.947,-26.875 -46.565,-40.144 -19.098,-16.05 -37.569,-32.815 -56.616,-48.917 -2.711,-2.238 -9.198,-8.727 -10.528,-8.484 -1.202,0.39 -3.214,3.485 -3.809,4.283 -0.919,1.233 -1.86,2.448 -2.811,3.655 -9.316,11.561 -19.381,22.495 -29.002,33.801 -21.307,24.414 -40.309,50.627 -60.081,76.258 -5.867,7.709 -12.464,14.951 -17.672,23.134 -2.538,-1.752 -5.146,-3.438 -7.179,-5.772 11.298,-16.146 24.414,-30.958 36.248,-46.717 13.957,-18.758 28.185,-37.295 43.756,-54.758 7.626,-8.854 15.145,-17.806 22.442,-26.934 4.361,-5.338 16.928,-19.968 19.085,-19.985 2.157,-0.017 32.202,27.767 46.851,40.661 17.146,15.67 34.969,30.575 52.25,46.098 14.78,13.459 29.388,27.148 45.02,39.615 -1.496,1.357 -2.984,2.747 -4.607,3.937 z"
             id="path9" />
        </g>
      </g>
      <g
         id="g1"
         transform="translate(10.059104,-28.891925)">
        <path
           text="we rescue"
           fill="#323e51"
           space="preserve"
           text-anchor="middle"
           offset="0.5"
           font-scale="contain"
           font-size="48px"
           font-family="'Titan One'"
           data-fl-textpath=""
           font-style="normal"
           font-weight="400"
           d="m 271.61047,270.0661 v 0 q -1.20449,2.23414 -12.62776,2.23414 -11.42326,0 -11.88952,-2.23414 v 0 l -3.16665,-16.97948 h -1.32106 l -2.97238,16.97948 q -0.29141,2.23414 -16.31895,2.23414 v 0 q -4.48771,0 -5.92534,-0.50511 -1.43762,-0.52454 -2.00101,-1.72903 v 0 q -17.3486,-42.62355 -17.3486,-44.85769 0,-2.23414 6.76071,-4.6237 6.76071,-2.37014 13.01631,-2.37014 v 0 q 8.00405,0 8.29546,4.29344 v 0 l 3.16666,25.54693 h 1.12678 l 1.10736,-20.61239 q 0.0971,-2.33128 4.75969,-4.09916 4.66256,-1.76789 9.42225,-1.76789 4.7597,0 7.12983,1.16564 2.37014,1.16564 2.46727,2.83639 v 0 l 1.02965,22.47741 h 1.02965 l 3.06952,-23.97332 q 0.2914,-2.23414 6.29445,-4.04088 6.02247,-1.82617 10.58789,-1.82617 4.56542,0 7.18811,1.30163 v 0 q 4.27401,2.0593 4.27401,4.85683 v 0 q 0,0.27199 -8.43146,22.7494 -8.43146,22.47741 -8.72287,22.94367 z m 48.49838,-18.84451 h -3.08895 q 0,6.06133 5.78934,6.06133 v 0 q 3.36093,0 8.76173,-2.273 5.42022,-2.29242 5.6922,-2.29242 v 0 q 1.76789,0 4.66256,5.32308 2.89467,5.30366 2.89467,7.82922 v 0 q 0,3.63291 -7.46009,5.49793 -7.46009,1.86502 -14.58992,1.86502 -7.14925,0 -11.9478,-1.12678 -4.79855,-1.10736 -7.82921,-2.83639 -3.03067,-1.72903 -5.3231,-4.23516 -2.27299,-2.52555 -3.39978,-4.81797 -1.10735,-2.273 -1.76788,-5.07054 v 0 q -0.93252,-4.09916 -0.93252,-8.48974 v 0 q 0,-16.97948 8.85887,-23.40992 v 0 q 4.39057,-3.26379 9.79137,-4.56542 5.4008,-1.30163 12.78318,-1.30163 v 0 q 23.58477,0 23.58477,16.41609 v 0 q 0,17.4263 -26.47944,17.4263 z m -3.26379,-13.61855 v 0 6.15846 q 2.70039,0 4.42943,-2.137 1.72903,-2.15644 1.72903,-5.22595 v 0 q 0,-5.59507 -2.89467,-5.59507 v 0 q -3.26379,0 -3.26379,6.79956 z m 81.49762,5.22595 v 0 27.23711 q 0,1.02965 -5.26481,1.63189 -5.2648,0.60225 -10.91815,0.60225 -5.63393,0 -7.3241,-0.50511 -1.67075,-0.52454 -1.67075,-1.72903 v 0 -45.98448 q 0,-1.76788 5.16766,-3.80775 5.1871,-2.0593 11.28728,-2.0593 6.11961,0 6.85784,3.36093 v 0 l 0.93252,4.29344 h 0.66052 q 1.30163,-3.5552 6.23617,-6.02247 4.95397,-2.46727 9.88851,-2.46727 4.93454,0 6.95498,1.57361 2.00102,1.59304 2.00102,4.06031 0,2.46727 -0.36912,6.29445 -0.38855,3.82719 -1.82617,8.29547 -1.43762,4.48771 -3.7689,4.48771 v 0 q -0.93251,0 -5.88648,-1.39876 -4.93454,-1.39877 -8.15947,-1.39877 -3.20551,0 -4.00203,0.93251 -0.79652,0.93251 -0.79652,2.60326 z m 57.07359,8.3926 h -3.08895 q 0,6.06133 5.78934,6.06133 v 0 q 3.36093,0 8.76173,-2.273 5.42022,-2.29242 5.6922,-2.29242 v 0 q 1.76789,0 4.66256,5.32308 2.89467,5.30366 2.89467,7.82922 v 0 q 0,3.63291 -7.46009,5.49793 -7.46009,1.86502 -14.58992,1.86502 -7.14926,0 -11.9478,-1.12678 -4.79855,-1.10736 -7.82922,-2.83639 -3.03066,-1.72903 -5.32308,-4.23516 -2.273,-2.52555 -3.39978,-4.81797 -1.10736,-2.273 -1.76789,-5.07054 v 0 q -0.93251,-4.09916 -0.93251,-8.48974 v 0 q 0,-16.97948 8.85886,-23.40992 v 0 q 4.39057,-3.26379 9.79137,-4.56542 5.40079,-1.30163 12.78318,-1.30163 v 0 q 23.58477,0 23.58477,16.41609 v 0 q 0,17.4263 -26.47944,17.4263 z m -3.26379,-13.61855 v 0 6.15846 q 2.70039,0 4.42943,-2.137 1.72903,-2.15644 1.72903,-5.22595 v 0 q 0,-5.59507 -2.89467,-5.59507 v 0 q -3.26379,0 -3.26379,6.79956 z m 60.71038,35.53257 v 0 q -15.48358,0 -22.67169,-2.97238 v 0 q -3.63291,-1.59304 -3.63291,-3.08894 v 0 q 0,-3.82718 2.23415,-8.956 2.23414,-5.12881 3.92432,-5.12881 v 0 q 0.93251,0 6.29445,2.0593 5.36194,2.05929 9.0337,2.05929 3.6912,0 4.85683,-0.46625 1.16564,-0.46626 1.16564,-1.82617 0,-1.35991 -1.86502,-2.13701 -1.86502,-0.79652 -4.66256,-1.08793 -2.79753,-0.27198 -6.02247,-1.10735 -3.2055,-0.83538 -6.00304,-2.15644 -2.79753,-1.30163 -4.66256,-4.33229 -1.86502,-3.03066 -1.86502,-6.52758 0,-3.49692 0.17485,-5.22595 0.19427,-1.7096 1.55418,-4.8374 1.34049,-3.1278 3.80776,-5.08996 2.48669,-1.96216 7.65436,-3.53577 5.16767,-1.59305 11.61754,-1.59305 6.43045,0 10.76274,0.42741 4.33229,0.40797 6.79956,1.0685 2.4867,0.66053 4.06031,1.4959 v 0 q 2.7004,1.39877 2.7004,3.06952 v 0 q 0,3.63291 -2.60326,8.3926 -2.60326,4.7597 -4.15745,4.7597 -1.53476,0 -6.66357,-1.6319 -5.12881,-1.63189 -7.55723,-1.63189 v 0 q -3.90489,0 -3.90489,2.23414 v 0 q 0,1.39877 2.66154,2.09815 2.64212,0.69938 6.37216,1.45705 3.73005,0.73824 7.51838,2.09815 3.7689,1.34049 6.43044,4.89569 2.66155,3.53577 2.66155,8.93656 v 0 q 0,18.28111 -26.01319,18.28111 z m 43.62988,-2.42841 v 0 q -2.23414,-1.01022 -4.79855,-3.06952 -2.5644,-2.05929 -4.23515,-4.85683 v 0 q -3.92432,-6.70242 -3.92432,-17.52344 v 0 q 0,-6.72186 2.137,-11.98666 2.15644,-5.26481 5.22595,-8.15948 3.08895,-2.89467 7.09098,-4.75969 v 0 q 6.43044,-2.97238 12.86088,-2.97238 v 0 q 10.82102,0 15.07561,1.67075 4.23515,1.69017 4.23515,5.6922 0,4.00203 -1.43762,8.5286 -1.45705,4.52656 -3.78833,4.52656 v 0 q -0.73824,0 -4.52656,-1.59304 -3.7689,-1.57361 -6.52758,-1.57361 -2.73926,0 -4.19631,2.19529 -1.43762,2.17586 -1.43762,8.47031 0,6.29445 1.30163,8.58688 1.30163,2.29242 4.06031,2.29242 2.75868,0 6.85785,-1.86502 4.09916,-1.86502 4.56542,-1.86502 v 0 q 1.76789,0 3.39978,4.1963 1.6319,4.1963 1.6319,7.46009 v 0 q 0,5.03168 -5.22595,7.03269 -5.20653,2.00101 -14.12367,2.00101 -8.89771,0 -14.2208,-2.42841 z m 58.00999,2.42841 v 0 q -10.4519,0 -14.58992,-5.40079 -4.15745,-5.42022 -4.15745,-18.8445 v 0 -25.35266 q 0,-1.86502 5.49793,-3.59406 5.49794,-1.72903 11.55926,-1.72903 v 0 q 8.12062,0 8.12062,4.1963 v 0 23.68191 q 0,7.09097 0.56339,10.31591 0.5634,3.20551 2.79754,3.20551 v 0 q 2.97238,0 2.97238,-2.50613 v 0 -33.57041 q 0,-1.96216 5.78934,-3.65234 5.78934,-1.67075 12.58891,-1.67075 6.79956,0 6.79956,3.63291 v 0 48.02434 q 0,1.30164 -5.86705,1.86503 -5.86705,0.56339 -11.55926,0.56339 -5.6922,0 -5.78934,-1.4959 v 0 l -0.93251,-6.06133 h -0.73824 q -0.83538,3.36093 -3.36093,5.49793 v 0 q -1.30163,1.12679 -3.86603,2.02045 -2.56441,0.87422 -5.8282,0.87422 z m 72.08314,-21.91402 h -3.08895 q 0,6.06133 5.78935,6.06133 v 0 q 3.36092,0 8.76172,-2.273 5.42022,-2.29242 5.6922,-2.29242 v 0 q 1.76789,0 4.66256,5.32308 2.89467,5.30366 2.89467,7.82922 v 0 q 0,3.63291 -7.46009,5.49793 -7.46009,1.86502 -14.58992,1.86502 -7.14925,0 -11.9478,-1.12678 -4.79855,-1.10736 -7.82921,-2.83639 -3.03067,-1.72903 -5.32309,-4.23516 -2.273,-2.52555 -3.39978,-4.81797 -1.10736,-2.273 -1.76789,-5.07054 v 0 q -0.93251,-4.09916 -0.93251,-8.48974 v 0 q 0,-16.97948 8.85886,-23.40992 v 0 q 4.39057,-3.26379 9.79137,-4.56542 5.4008,-1.30163 12.78318,-1.30163 v 0 q 23.58477,0 23.58477,16.41609 v 0 q 0,17.4263 -26.47944,17.4263 z m -3.26379,-13.61855 v 0 6.15846 q 2.7004,0 4.42943,-2.137 1.72903,-2.15644 1.72903,-5.22595 v 0 q 0,-5.59507 -2.89467,-5.59507 v 0 q -3.26379,0 -3.26379,6.79956 z"
           id="path10"
           style="stroke-width:1.94273" />
        <path
           text="cats"
           fill="#323e51"
           space="preserve"
           text-anchor="middle"
           offset="0.5"
           font-scale="contain"
           font-size="48px"
           font-family="'Titan One'"
           data-fl-textpath=""
           font-style="normal"
           font-weight="400"
           d="m 363.27442,350.17052 v 0 q -2.23415,-1.01022 -4.79855,-3.06952 -2.56441,-2.05929 -4.23516,-4.85683 v 0 q -3.92432,-6.70242 -3.92432,-17.52344 v 0 q 0,-6.72186 2.13701,-11.98666 2.15643,-5.26481 5.22595,-8.15948 3.08894,-2.89467 7.09097,-4.75969 v 0 q 6.43044,-2.97238 12.86089,-2.97238 v 0 q 10.82102,0 15.0756,1.67075 4.23516,1.69017 4.23516,5.6922 0,4.00203 -1.43763,8.5286 -1.45704,4.52656 -3.78832,4.52656 v 0 q -0.73824,0 -4.52657,-1.59304 -3.7689,-1.57361 -6.52758,-1.57361 -2.73925,0 -4.1963,2.19529 -1.43762,2.17586 -1.43762,8.47031 0,6.29445 1.30163,8.58688 1.30163,2.29242 4.06031,2.29242 2.75868,0 6.85784,-1.86502 4.09917,-1.86502 4.56542,-1.86502 v 0 q 1.76789,0 3.39978,4.1963 1.6319,4.1963 1.6319,7.46009 v 0 q 0,5.03168 -5.22595,7.03269 -5.20652,2.00101 -14.12366,2.00101 -8.89772,0 -14.2208,-2.42841 z m 56.98033,2.42841 v 0 q -8.48974,0 -13.32714,-4.00202 v 0 q -1.96216,-1.69018 -3.41921,-4.95397 -1.43762,-3.26379 -1.43762,-7.63494 0,-4.39057 2.09815,-7.65436 2.09815,-3.26379 5.08996,-5.03168 2.97238,-1.76789 6.99384,-2.89467 v 0 q 6.06132,-1.57362 13.32714,-1.57362 v 0 h 3.06952 q 0,-3.82718 -2.60327,-5.42022 v 0 q -1.12678,-0.6411 -3.39978,-0.6411 -2.29242,0 -5.49793,1.20449 -3.22493,1.2045 -5.36194,2.46727 -2.15643,1.26278 -2.89467,1.26278 v 0 q -1.69018,0 -4.56542,-4.42943 -2.89467,-4.42943 -2.89467,-8.06234 v 0 q 0,-1.22392 3.43863,-3.16665 3.45807,-1.96216 9.75252,-3.59406 6.29445,-1.63189 12.25864,-1.63189 5.96419,0 10.31591,0.97136 4.33229,0.9908 7.07154,2.38956 2.75868,1.39877 4.66256,3.73005 1.92331,2.33128 2.89467,4.1963 0.9908,1.86503 1.45705,4.83741 v 0 q 0.6411,3.45806 0.6411,8.48974 v 0 28.07248 q 0,1.02965 -4.99282,1.63189 -4.97339,0.60225 -9.86908,0.60225 -4.89568,0 -6.35273,-0.27198 -1.43763,-0.29141 -1.72904,-0.66053 -0.27198,-0.36912 -0.46625,-1.30163 v 0 l -0.73824,-5.32309 h -0.73824 q -2.33128,8.3926 -12.78318,8.3926 z m 12.49177,-15.48357 v 0 -10.89873 q -2.42841,0 -3.90489,2.03987 -1.4959,2.0593 -1.4959,4.66256 v 0 q 0,6.15846 2.79753,6.15846 v 0 q 1.2045,0 1.90388,-0.60225 0.69938,-0.60225 0.69938,-1.35991 z m 68.34921,13.81283 q -1.67075,1.57361 -7.63494,1.57361 -5.96419,0 -9.8885,-0.77709 -3.92432,-0.79652 -7.4601,-3.1278 v 0 q -6.79956,-4.56542 -6.79956,-19.01935 v 0 -14.55107 h -4.66256 q -1.02965,0 -1.78731,-2.15643 -0.73824,-2.13701 -0.73824,-5.86705 0,-3.73005 1.16564,-6.56644 1.16564,-2.85581 3.03066,-2.85581 v 0 h 2.99181 v -11.28728 q 0,-2.87524 5.63392,-4.66256 5.63393,-1.76788 11.05415,-1.76788 v 0 q 8.48974,0 8.48974,4.1963 v 0 13.52142 h 6.8967 q 2.42842,0 2.42842,6.99383 v 0 q 0,4.56542 -1.08793,7.51838 -1.06851,2.93352 -2.73926,2.93352 v 0 h -5.49793 v 17.05719 q 0,2.52555 2.13701,3.59406 2.137,1.0685 3.7689,1.0685 1.63189,0 2.02044,1.59304 0.36912,1.57361 0.36912,4.75969 v 0 q 0,6.23617 -1.69018,7.82922 z m 33.67921,1.67074 v 0 q -15.48358,0 -22.67169,-2.97238 v 0 q -3.63291,-1.59304 -3.63291,-3.08894 v 0 q 0,-3.82718 2.23414,-8.956 2.23415,-5.12881 3.92432,-5.12881 v 0 q 0.93252,0 6.29446,2.0593 5.36194,2.05929 9.0337,2.05929 3.69119,0 4.85683,-0.46625 1.16564,-0.46626 1.16564,-1.82617 0,-1.35991 -1.86502,-2.13701 -1.86502,-0.79652 -4.66256,-1.08793 -2.79753,-0.27198 -6.02247,-1.10735 -3.20551,-0.83538 -6.00304,-2.15644 -2.79754,-1.30163 -4.66256,-4.33229 -1.86502,-3.03066 -1.86502,-6.52758 0,-3.49692 0.17484,-5.22595 0.19428,-1.7096 1.55419,-4.8374 1.34048,-3.1278 3.80775,-5.08996 2.4867,-1.96216 7.65437,-3.53577 5.16767,-1.59305 11.61754,-1.59305 6.43044,0 10.76274,0.42741 4.33229,0.40797 6.79956,1.0685 2.4867,0.66053 4.06031,1.4959 v 0 q 2.7004,1.39877 2.7004,3.06952 v 0 q 0,3.63291 -2.60326,8.3926 -2.60326,4.7597 -4.15745,4.7597 -1.53476,0 -6.66357,-1.6319 -5.12882,-1.63189 -7.55723,-1.63189 v 0 q -3.90489,0 -3.90489,2.23414 v 0 q 0,1.39877 2.66154,2.09815 2.64212,0.69938 6.37216,1.45705 3.73005,0.73824 7.51838,2.09815 3.7689,1.34049 6.43044,4.89569 2.66154,3.53577 2.66154,8.93656 v 0 q 0,18.28111 -26.01318,18.28111 z"
           id="path11"
           style="stroke-width:1.94273" />
      </g>
    </g>
  </svg>
</svg>
